
        <svg xmlns="http://www.w3.org/2000/svg" xmlns:xlink="http://www.w3.org/1999/xlink" version="1.1" width="3171.4285714285716" 
        height="1405.4666820356988" viewBox="0 0 3171.4285714285716 1405.4666820356988">
			<rect fill="#111111" width="3171.4285714285716" height="1405.4666820356988"/>
			<g transform="scale(8.571428571428571) translate(10, 10)">
				<defs id="SvgjsDefs1848"></defs><g id="SvgjsG1849" featureKey="T6b0uQ-0" transform="matrix(1.2754931247619739,0,0,1.2754931247619739,111.72613313274296,-28.02992286318312)" fill="#a5ecd7"><g xmlns="http://www.w3.org/2000/svg"><path d="M86.916,70.271c1.081,0.607,2.16,1.217,3.24,1.825H9.843c1.081-0.608,2.16-1.218,3.24-1.825   c9.928-5.585,19.858-11.167,29.789-16.748c2.375-1.335,4.752-2.671,7.128-4.006c2.376,1.335,4.752,2.671,7.128,4.006   C67.059,59.104,76.988,64.686,86.916,70.271 M94.859,69.295c-7.729-4.529-15.656-8.741-23.449-13.16   c-3.056-1.731-6.835-3.383-9.085-6.188c-1.37-1.708-1.856-3.854-3.108-5.623c-1.012-1.432-2.365-2.592-3.867-3.485   c-1.501-0.893-3.195-1.276-4.919-1.642v-4.277c0-0.987,0.846-2.13,1.57-2.808c1.501-1.405,2.199-2.831,2.199-4.487   c0-1.522-0.646-3.009-1.772-4.079c-1.129-1.072-2.649-1.642-4.173-1.563c-1.693,0.088-3.298,0.964-4.292,2.346   c-0.204,0.282-0.388,0.562-0.566,0.831c-0.352,0.532-0.693,1.036-1.131,1.507c-0.054-0.012-0.11-0.02-0.168-0.02   c-0.42,0-0.76,0.34-0.76,0.76c0,0.42,0.34,0.76,0.76,0.76s0.761-0.34,0.761-0.76c0-0.032-0.006-0.063-0.009-0.094   c0.513-0.542,0.902-1.115,1.272-1.674c0.173-0.263,0.354-0.535,0.546-0.804c0.842-1.168,2.199-1.91,3.631-1.984   c1.286-0.067,2.573,0.417,3.529,1.325c0.956,0.907,1.503,2.164,1.503,3.449c0,1.418-0.594,2.606-1.925,3.852   c-0.892,0.836-1.845,2.178-1.845,3.442v4.279c-1.721,0.366-3.413,0.749-4.912,1.64c-1.502,0.893-2.855,2.054-3.868,3.485   c-1.25,1.768-1.737,3.914-3.107,5.623c-2.25,2.806-6.03,4.457-9.085,6.188c-7.793,4.419-15.72,8.631-23.45,13.16   c-2.462,1.442-4.604,4.035-4.053,7.055c0.122,0.666,0.528,0.384,0.905,0.17c0.339-0.193,0.678-0.384,1.018-0.575   c0.948-0.536,1.898-1.069,2.847-1.604h88.286c0.949,0.535,1.9,1.068,2.849,1.604c0.339,0.191,0.679,0.382,1.017,0.575   c0.378,0.214,0.784,0.496,0.905-0.17C99.463,73.33,97.322,70.737,94.859,69.295"></path></g></g><g id="SvgjsG1850" featureKey="i9e7OP-0" transform="matrix(2.059532647277379,0,0,2.059532647277379,-2.2724907616614605,79.86312481458675)" fill="#ffffff"><path d="M1.1035 5.195 l11.455 0 l0 5.0488 l-3.1738 0 l0 -2.0801 l-3.5059 0 l0 3.1152 l3.0371 0 l0 2.8418 l-3.0371 0 l0 3.2031 l1.5625 0 l0 2.6758 l-6.3379 0 l0 -2.6758 l1.5332 0 l0 -9.1602 l-1.5332 0 l0 -2.9688 z M20.36129375 20.26367 q-1.005859375 0 -1.923828125 -0.2734375 t-1.7139 -0.77148 t-1.4453 -1.1963 t-1.1084 -1.5527 t-0.71289 -1.8311 t-0.25391 -2.041 t0.25391 -2.0459 t0.71289 -1.8359 t1.1084 -1.5527 t1.4453 -1.1963 t1.7139 -0.77148 t1.9238 -0.27344 t1.9287 0.27344 t1.7188 0.77148 t1.4453 1.1963 t1.1133 1.5527 t0.71777 1.8359 t0.25391 2.0459 q0 1.0546875 -0.25390625 2.036132813 t-0.71777 1.8359 t-1.1133 1.5527 t-1.4453 1.1963 t-1.7188 0.77148 t-1.9287 0.27344 z M20.36129375 17.1973 q0.849609375 0 1.557617188 -0.3662109375 t1.2158 -0.99609 t0.78613 -1.4648 t0.27832 -1.7725 q0 -0.947265625 -0.283203125 -1.787109375 t-0.7959 -1.4697 t-1.2158 -0.99609 t-1.543 -0.36621 t-1.543 0.36621 t-1.2109 0.99609 t-0.7959 1.4697 t-0.28809 1.7871 q0 0.9375 0.2880859375 1.772460938 t0.7959 1.4648 t1.2109 0.99609 t1.543 0.36621 z M29.48240625 5.195 l6.3379 0 l0 2.6855 l-1.5625 0 l0 9.4434 l3.2227 0 q0.126953125 0 0.2490234375 -0.0732421875 t0.21484 -0.19043 t0.15137 -0.25391 t0.058594 -0.26367 l0 -1.9824 l3.1641 0 l0 5.4395 l-11.836 0 l0 -2.6758 l1.5332 0 l0 -9.4434 l-1.5332 0 l0 -2.6855 z M42.6269375 5.195 l6.3379 0 l0 2.6855 l-1.5625 0 l0 4.3066 l4.7363 -4.1309 l0 -2.8613 l5.0488 0 l0 2.8809 l-1.1035 0 l-4.9316 4.2383 l4.7266 4.7852 l1.2012 0 l0 2.9004 l-4.9121 0 l0 -2.9004 l-4.7656 -4.7656 l0 4.9902 l1.5625 0 l0 2.6758 l-6.3379 0 l0 -2.6758 l1.5332 0 l0 -9.4434 l-1.5332 0 l0 -2.6855 z M65.332053125 17.3242 l1.5332 0 l0 -9.541 l-1.7969 0 l0 1.9141 l-3.1836 0 l0 -4.502 l13.467 0 l0 4.502 l-3.2031 0 l0 -1.9141 l-2.041 0 l0 9.541 l1.5625 0 l0 2.6758 l-6.3379 0 l0 -2.6758 z M76.757796875 5.195 l6.3379 0 l0 2.6758 l-1.5625 0 l0 9.4531 l1.5625 0 l0 2.6758 l-6.3379 0 l0 -2.6758 l1.5332 0 l0 -9.4531 l-1.5332 0 l0 -2.6758 z M84.667953125 5.195 l6.3379 0 l0 2.6855 l-1.5625 0 l0 9.4434 l3.2227 0 q0.126953125 0 0.2490234375 -0.0732421875 t0.21484 -0.19043 t0.15137 -0.25391 t0.058594 -0.26367 l0 -1.9824 l3.1641 0 l0 5.4395 l-11.836 0 l0 -2.6758 l1.5332 0 l0 -9.4434 l-1.5332 0 l0 -2.6855 z M97.812484375 5.195 l6.3379 0 l0 2.6855 l-1.5625 0 l0 9.4434 l3.2227 0 q0.126953125 0 0.2490234375 -0.0732421875 t0.21484 -0.19043 t0.15137 -0.25391 t0.058594 -0.26367 l0 -1.9824 l3.1641 0 l0 5.4395 l-11.836 0 l0 -2.6758 l1.5332 0 l0 -9.4434 l-1.5332 0 l0 -2.6855 z M114.960921875 5.195 l11.455 0 l0 5.0488 l-3.1738 0 l0 -2.0801 l-3.5059 0 l0 3.1152 l3.0371 0 l0 2.8418 l-3.0371 0 l0 3.2031 l1.5625 0 l0 2.6758 l-6.3379 0 l0 -2.6758 l1.5332 0 l0 -9.1602 l-1.5332 0 l0 -2.9688 z M134.218715625 20.26367 q-1.005859375 0 -1.923828125 -0.2734375 t-1.7139 -0.77148 t-1.4453 -1.1963 t-1.1084 -1.5527 t-0.71289 -1.8311 t-0.25391 -2.041 t0.25391 -2.0459 t0.71289 -1.8359 t1.1084 -1.5527 t1.4453 -1.1963 t1.7139 -0.77148 t1.9238 -0.27344 t1.9287 0.27344 t1.7188 0.77148 t1.4453 1.1963 t1.1133 1.5527 t0.71777 1.8359 t0.25391 2.0459 q0 1.0546875 -0.25390625 2.036132813 t-0.71777 1.8359 t-1.1133 1.5527 t-1.4453 1.1963 t-1.7188 0.77148 t-1.9287 0.27344 z M134.218715625 17.1973 q0.849609375 0 1.557617188 -0.3662109375 t1.2158 -0.99609 t0.78613 -1.4648 t0.27832 -1.7725 q0 -0.947265625 -0.283203125 -1.787109375 t-0.7959 -1.4697 t-1.2158 -0.99609 t-1.543 -0.36621 t-1.543 0.36621 t-1.2109 0.99609 t-0.7959 1.4697 t-0.28809 1.7871 q0 0.9375 0.2880859375 1.772460938 t0.7959 1.4648 t1.2109 0.99609 t1.543 0.36621 z M143.339828125 5.195 l6.3379 0 l0 2.6855 l-1.5625 0 l0 9.4434 l3.2227 0 q0.126953125 0 0.2490234375 -0.0732421875 t0.21484 -0.19043 t0.15137 -0.25391 t0.058594 -0.26367 l0 -1.9824 l3.1641 0 l0 5.4395 l-11.836 0 l0 -2.6758 l1.5332 0 l0 -9.4434 l-1.5332 0 l0 -2.6855 z M156.484359375 5.195 l6.3379 0 l0 2.6855 l-1.5625 0 l0 4.3066 l4.7363 -4.1309 l0 -2.8613 l5.0488 0 l0 2.8809 l-1.1035 0 l-4.9316 4.2383 l4.7266 4.7852 l1.2012 0 l0 2.9004 l-4.9121 0 l0 -2.9004 l-4.7656 -4.7656 l0 4.9902 l1.5625 0 l0 2.6758 l-6.3379 0 l0 -2.6758 l1.5332 0 l0 -9.4434 l-1.5332 0 l0 -2.6855 z"></path></g><g id="SvgjsG1851" featureKey="9oQUJT-0" transform="matrix(0.8045102180682299,0,0,0.8045102180682299,78.38857070745908,127.59128437326166)" fill="#a5ecd7"><path d="M5.9 5.48 q2.58 0 3.96 1.66 l-1.38 1.2 q-0.8 -1.26 -2.58 -1.3 q-1.34 0 -2.18 0.64 t-0.84 1.74 q0 0.96 0.64 1.52 t2.4 1.1 q2.28 0.66 3.23 1.61 t0.95 2.57 q0 1.88 -1.4 3 t-3.58 1.14 q-1.46 0 -2.6 -0.52 t-1.76 -1.44 l1.44 -1.18 q0.46 0.76 1.28 1.17 t1.74 0.41 q1.26 0 2.17 -0.71 t0.91 -1.75 q0 -0.94 -0.53 -1.48 t-1.75 -0.92 l-1.62 -0.54 q-1.82 -0.62 -2.57 -1.55 t-0.75 -2.29 q0 -1.8 1.34 -2.93 t3.48 -1.15 z M32.664 5.84 l0 1.56 l-7.22 0 l0 4.44 l6.74 0 l0 1.56 l-6.74 0 l0 5.04 l7.58 0 l0 1.56 l-9.26 0 l0 -14.16 l8.9 0 z M52.888 5.48 q1.66 0 2.94 0.59 t2.06 1.63 l-1.46 1.06 q-0.64 -0.86 -1.58 -1.29 t-1.96 -0.43 q-2.26 0 -3.81 1.72 t-1.59 4.16 q0 2.52 1.54 4.19 t3.86 1.69 q2.54 0 4.1 -1.98 l1.26 1.06 q-1.86 2.48 -5.36 2.48 q-3.1 0 -5.13 -2.14 t-2.07 -5.3 q0 -3.16 2.05 -5.28 t5.15 -2.16 z M78.05199999999999 5.48 q3.2 0 5.28 2.1 t2.12 5.34 q-0.02 3.3 -2.14 5.36 t-5.26 2.08 q-3.2 0 -5.28 -2.11 t-2.12 -5.33 q0 -3.2 2.08 -5.3 t5.32 -2.14 z M72.45199999999998 12.92 q0 2.54 1.6 4.19 t4 1.69 q2.4 0 3.98 -1.68 t1.62 -4.2 q0 -2.46 -1.56 -4.15 t-4.06 -1.73 q-2.44 0.02 -3.99 1.71 t-1.59 4.17 z M101.15599999999998 5.84 l8.2 11.76 l0.04 0 l0 -11.76 l1.68 0 l0 14.16 l-2.12 0 l-8.2 -11.76 l-0.04 0 l0 11.76 l-1.68 0 l0 -14.16 l2.12 0 z M130.49999999999997 5.84 q3.1 0 5.08 1.95 t2.02 5.13 q0 3.16 -1.99 5.1 t-5.07 1.98 l-5.32 0 l0 -14.16 l5.28 0 z M130.1 18.44 q2.66 0 4.17 -1.41 t1.53 -4.11 q0 -2.6 -1.48 -4.04 t-4.22 -1.48 l-3.2 0 l0 11.04 l3.2 0 z M152.86399999999998 5.84 l0 6 l7.56 0 l0 -6 l1.68 0 l0 14.16 l-1.68 0 l0 -6.6 l-7.56 0 l0 6.6 l-1.68 0 l0 -14.16 l1.68 0 z M182.688 5.84 l6.02 14.16 l-1.96 0 l-1.44 -3.48 l-7.08 0 l-1.46 3.48 l-1.9 0 l6.24 -14.16 l1.58 0 z M181.828 8 l-2.94 6.96 l5.78 0 l-2.8 -6.96 l-0.04 0 z M203.59199999999998 5.84 l8.2 11.76 l0.04 0 l0 -11.76 l1.68 0 l0 14.16 l-2.12 0 l-8.2 -11.76 l-0.04 0 l0 11.76 l-1.68 0 l0 -14.16 l2.12 0 z M232.93599999999998 5.84 q3.1 0 5.08 1.95 t2.02 5.13 q0 3.16 -1.99 5.1 t-5.07 1.98 l-5.32 0 l0 -14.16 l5.28 0 z M232.53599999999997 18.44 q2.66 0 4.17 -1.41 t1.53 -4.11 q0 -2.6 -1.48 -4.04 t-4.22 -1.48 l-3.2 0 l0 11.04 l3.2 0 z"></path></g>
			</g>
		</svg>
	